<?xml version="1.0" encoding="UTF-8"?>
<svg width="32px" height="32px" viewBox="0 0 32 32" version="1.1" xmlns="http://www.w3.org/2000/svg" xmlns:xlink="http://www.w3.org/1999/xlink">
    <!-- Generator: Sketch 61.2 (89653) - https://sketch.com -->
    <title>btn_screen@2x</title>
    <desc>Created with Sketch.</desc>
    <g id="页面1" stroke="none" stroke-width="1" fill="none" fill-rule="evenodd">
        <g id="1商划_效果评估_新店" transform="translate(-1254.000000, -175.000000)">
            <g id="筛选" transform="translate(280.000000, 169.000000)">
                <g id="编组-17" transform="translate(928.000000, 0.000000)">
                    <g id="效果评估/新店数" transform="translate(46.000000, 6.000000)">
                        <g id="编组-2">
                            <g id="编组">
                                <rect id="矩形" fill="#D8D8D8" opacity="0" x="0" y="0" width="32" height="32" rx="2"></rect>
                                <path d="M11.0149482,10.6318465 C10.9465271,10.6318465 10.8781061,10.6318465 10.809685,10.6950312 C10.6728429,10.8214005 10.6728429,11.0109544 10.741264,11.1373237 L15.1202112,16.4448345 C15.3254744,16.6975731 15.4623165,17.076681 15.4623165,17.3926043 L15.4623165,20.8568057 C15.4623165,20.9199904 15.5307375,21.0463597 15.5307375,21.1095443 L17.514948,22.9418993 L17.514948,17.455789 C17.514948,17.1398657 17.6517901,16.7607578 17.8570532,16.5080192 L22.2360004,11.2005084 C22.3044215,11.1373237 22.3044215,11.0741391 22.3044215,11.0109544 C22.3044215,10.7582158 22.1675794,10.6318465 21.9623162,10.6318465 L11.0149482,10.6318465 Z M11.0149482,10 L21.9623162,10 C22.5096846,10 22.988632,10.4422926 22.988632,10.9477698 C22.988632,11.1373237 22.9202109,11.3268777 22.7833688,11.5164317 L18.4044216,16.8239424 C18.2675795,17.0134964 18.1991585,17.2030503 18.1991585,17.3926043 L18.1991585,22.8787146 C18.1991585,23.2578225 17.9254743,23.5105611 17.514948,23.5105611 C17.3096848,23.5105611 17.1728427,23.4473765 17.0360006,23.3210072 L15.0517902,21.4886523 C14.846527,21.2990983 14.778106,21.0463597 14.778106,20.7936211 L14.778106,17.3294197 C14.778106,17.1398657 14.7096849,16.9503117 14.5728428,16.7607578 L10.1938956,11.5164317 C9.85179034,11.1373237 9.98863244,10.5054772 10.3991587,10.189554 C10.6044219,10.0631847 10.809685,10 11.0149482,10 Z" id="形状" stroke="#FFFFFF" stroke-width="0.7" fill="#FFFFFF" fill-rule="nonzero"></path>
                            </g>
                        </g>
                    </g>
                </g>
            </g>
        </g>
    </g>
</svg>